<?xml version="1.0" encoding="iso-8859-1"?>
<!-- Generator: Adobe Illustrator 19.0.0, SVG Export Plug-In . SVG Version: 6.00 Build 0)  -->
<svg version="1.1" id="Layer_1" xmlns="http://www.w3.org/2000/svg" xmlns:xlink="http://www.w3.org/1999/xlink" x="0px" y="0px"
	 viewBox="0 0 512 512" style="enable-background:new 0 0 512 512;" xml:space="preserve">
<g>
	<path style="fill:#FFDA44;" d="M206.367,87.765c0-25.109,39.059-74.575,43.521-80.134L256,0.003l6.113,7.628
		c4.462,5.559,43.521,55.025,43.521,80.134c0,19.143-11.201,36.781-28.537,44.942l-6.667-14.19
		c11.86-5.58,19.529-17.649,19.529-30.752c0-12.978-18.861-42.361-33.96-62.444c-15.089,20.094-33.96,49.487-33.96,62.444
		c0,12.894,7.158,24.524,18.683,30.344l-7.064,13.991C216.826,123.595,206.367,106.616,206.367,87.765z"/>
	<path style="fill:#FFDA44;" d="M399.153,160.909v44.931h-20.898v70.448c0,22.56-12.717,42.183-31.347,52.12v68.473
		c0,1.839-0.178,3.647-0.512,5.402h0.512V512h-182.86V292.067c-17.419-4.545-30.302-20.418-30.302-39.236v-46.99h-20.898v-44.931
		h134.794V98.214h15.674v62.695H399.153z"/>
</g>
<g>
	<path style="fill:#DDB200;" d="M221.518,198.599v171.23c0,15.851-12.508,28.275-28.474,28.275h-0.136
		c-15.914,0-28.86-12.685-28.86-28.275v-94.335c3.124,1.421,6.593,2.215,10.251,2.215h0.272c13.793,0,25.005-11.212,25.005-24.994
		v-19.268c0-10.575,4.263-20.177,11.139-27.157C213.827,203.145,217.484,200.522,221.518,198.599z"/>
	<path style="fill:#DDB200;" d="M346.907,309.632v87.25c0,7.952-3.26,15.298-8.443,20.658c-5.193,5.36-12.309,8.735-20.031,8.777
		h-0.136c-15.653-0.073-28.861-13.521-28.861-29.435v-89.1c7.774,7.356,18.265,11.87,29.78,11.87
		C329.74,319.652,339.394,315.891,346.907,309.632z"/>
</g>
<g>
	<rect x="205.848" y="329.137" style="fill:#FF9811;" width="15.674" height="6.269"/>
	<path style="fill:#FF9811;" d="M237.192,125.1c-13.636-6.883-22.987-21.017-22.987-37.335c0-23.083,41.797-75.234,41.797-75.234
		s41.797,52.151,41.797,75.234c0,16.732-9.832,31.168-24.033,37.845"/>
</g>
<path d="M233.659,132.097l7.064-13.992c-11.523-5.817-18.682-17.442-18.682-30.339c0-12.961,18.867-42.349,33.961-62.44
	c15.094,20.082,33.959,49.464,33.959,62.44c0,13.103-7.667,25.174-19.53,30.753l6.67,14.184
	c17.334-8.151,28.536-25.789,28.536-44.936c0-25.111-39.064-74.578-43.517-80.134L256,0l-6.116,7.63
	c-4.454,5.558-43.517,55.023-43.517,80.134C206.367,106.611,216.825,123.599,233.659,132.097z"/>
<path d="M362.581,276.292c0,23.911-19.453,43.364-43.364,43.364s-43.364-19.453-43.364-43.364v-42.846
	c0-21.157-16.967-38.391-37.896-38.576l-0.341-0.001v0.001c-21.008,0.185-38.042,17.419-38.042,38.576v19.267
	c0,13.784-11.215,25-25,25h-0.273c-13.721,0-24.884-11.163-24.884-24.884v-32.361h-15.674v32.361
	c0,18.821,12.888,34.687,30.302,39.241v77.754c0,15.594,12.95,28.281,28.866,28.281h0.131c15.966,0,28.474-12.422,28.474-28.281
	V329.14h-15.674v40.684c0,7.187-5.503,12.607-12.8,12.607h-0.131c-7.398,0-13.192-5.538-13.192-12.607V293.05
	c20.005-2.539,35.527-19.654,35.527-40.337v-19.267c0-12.572,10.097-22.81,22.541-22.903c12.57,0.09,22.39,10.118,22.39,22.903
	v42.846c0,32.553,26.484,59.038,59.038,59.038c4.117,0,8.135-0.426,12.016-1.232v62.787c0,7.436-5.885,13.721-12.866,13.76
	c-7.07-0.04-13.258-6.452-13.258-13.76v-30.126h-15.674v30.126c0,15.911,13.205,29.36,28.866,29.434h0.131v-0.001
	c15.448-0.075,28.474-13.523,28.474-29.433v-68.471c18.633-9.939,31.347-29.569,31.347-52.12V220.47H362.58v55.821H362.581z"/>
<polygon points="263.314,160.909 263.314,98.214 247.641,98.214 247.641,160.909 112.847,160.909 112.847,205.84 188.081,205.84 
	188.081,190.167 128.521,190.167 128.521,176.583 383.479,176.583 383.479,190.167 323.919,190.167 323.919,205.84 399.153,205.84 
	399.153,160.909 "/>
<rect x="287.352" y="190.164" width="26.123" height="15.674"/>
<polygon points="292.572,440.946 292.572,456.62 331.234,456.62 331.234,496.326 179.721,496.326 179.721,409.599 164.048,409.599 
	164.048,512 346.907,512 346.907,440.946 "/>
<rect x="256.004" y="440.943" width="26.123" height="15.674"/>
<g>
</g>
<g>
</g>
<g>
</g>
<g>
</g>
<g>
</g>
<g>
</g>
<g>
</g>
<g>
</g>
<g>
</g>
<g>
</g>
<g>
</g>
<g>
</g>
<g>
</g>
<g>
</g>
<g>
</g>
</svg>
